<mxfile host="app.diagrams.net" agent="Mozilla/5.0 (Windows NT 10.0; Win64; x64) AppleWebKit/537.36 (KHTML, like Gecko) Chrome/133.0.0.0 Safari/537.36 OPR/118.0.0.0" version="26.2.12">
  <diagram name="Page-1" id="urqVdJvE2d3wqG0NjrJD">
    <mxGraphModel dx="2523" dy="1433" grid="1" gridSize="10" guides="1" tooltips="1" connect="1" arrows="1" fold="1" page="1" pageScale="1" pageWidth="827" pageHeight="1169" math="0" shadow="0">
      <root>
        <mxCell id="0" />
        <mxCell id="1" parent="0" />
        <mxCell id="q9H705TJd69xy98FIkdc-108" value="" style="rounded=0;whiteSpace=wrap;html=1;" vertex="1" parent="1">
          <mxGeometry x="160" width="1460" height="750" as="geometry" />
        </mxCell>
        <mxCell id="q9H705TJd69xy98FIkdc-1" value="" style="ellipse;whiteSpace=wrap;html=1;aspect=fixed;" vertex="1" parent="1">
          <mxGeometry x="80" y="40" width="40" height="40" as="geometry" />
        </mxCell>
        <mxCell id="q9H705TJd69xy98FIkdc-2" value="" style="endArrow=none;html=1;rounded=0;entryX=0.5;entryY=1;entryDx=0;entryDy=0;" edge="1" parent="1" target="q9H705TJd69xy98FIkdc-1">
          <mxGeometry width="50" height="50" relative="1" as="geometry">
            <mxPoint x="100" y="130" as="sourcePoint" />
            <mxPoint x="130" y="110" as="targetPoint" />
          </mxGeometry>
        </mxCell>
        <mxCell id="q9H705TJd69xy98FIkdc-3" value="" style="endArrow=none;html=1;rounded=0;" edge="1" parent="1">
          <mxGeometry width="50" height="50" relative="1" as="geometry">
            <mxPoint x="130" y="160" as="sourcePoint" />
            <mxPoint x="80" y="160" as="targetPoint" />
            <Array as="points">
              <mxPoint x="100" y="130" />
            </Array>
          </mxGeometry>
        </mxCell>
        <mxCell id="q9H705TJd69xy98FIkdc-4" value="" style="endArrow=none;html=1;rounded=0;" edge="1" parent="1">
          <mxGeometry width="50" height="50" relative="1" as="geometry">
            <mxPoint x="100" y="110" as="sourcePoint" />
            <mxPoint x="120" y="100" as="targetPoint" />
          </mxGeometry>
        </mxCell>
        <mxCell id="q9H705TJd69xy98FIkdc-5" value="" style="endArrow=none;html=1;rounded=0;" edge="1" parent="1">
          <mxGeometry width="50" height="50" relative="1" as="geometry">
            <mxPoint x="80" y="100" as="sourcePoint" />
            <mxPoint x="100" y="110" as="targetPoint" />
          </mxGeometry>
        </mxCell>
        <mxCell id="q9H705TJd69xy98FIkdc-6" value="&lt;font style=&quot;font-size: 24px;&quot;&gt;User&lt;/font&gt;" style="text;html=1;align=center;verticalAlign=middle;whiteSpace=wrap;rounded=0;" vertex="1" parent="1">
          <mxGeometry x="70" y="160" width="60" height="30" as="geometry" />
        </mxCell>
        <mxCell id="q9H705TJd69xy98FIkdc-7" value="Main Screen" style="rounded=1;whiteSpace=wrap;html=1;" vertex="1" parent="1">
          <mxGeometry x="210" y="80" width="120" height="60" as="geometry" />
        </mxCell>
        <mxCell id="q9H705TJd69xy98FIkdc-8" value="" style="endArrow=none;html=1;rounded=0;entryX=0;entryY=0.5;entryDx=0;entryDy=0;" edge="1" parent="1" target="q9H705TJd69xy98FIkdc-7">
          <mxGeometry width="50" height="50" relative="1" as="geometry">
            <mxPoint x="130" y="110" as="sourcePoint" />
            <mxPoint x="440" y="270" as="targetPoint" />
          </mxGeometry>
        </mxCell>
        <mxCell id="q9H705TJd69xy98FIkdc-13" value="" style="endArrow=block;dashed=1;endFill=0;endSize=12;html=1;rounded=0;exitX=0;exitY=0.5;exitDx=0;exitDy=0;entryX=1;entryY=0.5;entryDx=0;entryDy=0;" edge="1" parent="1" source="q9H705TJd69xy98FIkdc-16" target="q9H705TJd69xy98FIkdc-7">
          <mxGeometry width="160" relative="1" as="geometry">
            <mxPoint x="330" y="109.5" as="sourcePoint" />
            <mxPoint x="440" y="40" as="targetPoint" />
          </mxGeometry>
        </mxCell>
        <mxCell id="q9H705TJd69xy98FIkdc-15" value="" style="endArrow=block;dashed=1;endFill=0;endSize=12;html=1;rounded=0;exitX=0;exitY=0.5;exitDx=0;exitDy=0;entryX=1;entryY=0.5;entryDx=0;entryDy=0;" edge="1" parent="1" source="q9H705TJd69xy98FIkdc-21" target="q9H705TJd69xy98FIkdc-7">
          <mxGeometry width="160" relative="1" as="geometry">
            <mxPoint x="340" y="120" as="sourcePoint" />
            <mxPoint x="280" y="190" as="targetPoint" />
          </mxGeometry>
        </mxCell>
        <mxCell id="q9H705TJd69xy98FIkdc-16" value="Settings screen" style="rounded=1;whiteSpace=wrap;html=1;" vertex="1" parent="1">
          <mxGeometry x="480" y="80" width="120" height="60" as="geometry" />
        </mxCell>
        <mxCell id="q9H705TJd69xy98FIkdc-21" value="Deck Manager&lt;span style=&quot;white-space: pre;&quot;&gt;&#x9;&lt;/span&gt;" style="rounded=1;whiteSpace=wrap;html=1;" vertex="1" parent="1">
          <mxGeometry x="480" y="220" width="120" height="60" as="geometry" />
        </mxCell>
        <mxCell id="q9H705TJd69xy98FIkdc-22" value="Deck importieren" style="rounded=1;whiteSpace=wrap;html=1;" vertex="1" parent="1">
          <mxGeometry x="730" y="80" width="120" height="60" as="geometry" />
        </mxCell>
        <mxCell id="q9H705TJd69xy98FIkdc-25" value="&amp;lt;extends&amp;gt;" style="text;html=1;align=center;verticalAlign=middle;whiteSpace=wrap;rounded=0;rotation=0;" vertex="1" parent="1">
          <mxGeometry x="620" y="80" width="90" height="30" as="geometry" />
        </mxCell>
        <mxCell id="q9H705TJd69xy98FIkdc-31" value="" style="endArrow=block;dashed=1;endFill=0;endSize=12;html=1;rounded=0;entryX=1;entryY=0.5;entryDx=0;entryDy=0;exitX=0;exitY=0.5;exitDx=0;exitDy=0;" edge="1" parent="1" source="q9H705TJd69xy98FIkdc-22" target="q9H705TJd69xy98FIkdc-16">
          <mxGeometry width="160" relative="1" as="geometry">
            <mxPoint x="540" y="240" as="sourcePoint" />
            <mxPoint x="630" y="270" as="targetPoint" />
          </mxGeometry>
        </mxCell>
        <mxCell id="q9H705TJd69xy98FIkdc-32" value="" style="endArrow=block;dashed=1;endFill=0;endSize=12;html=1;rounded=0;exitX=0;exitY=0.5;exitDx=0;exitDy=0;entryX=1;entryY=0.5;entryDx=0;entryDy=0;" edge="1" parent="1" source="q9H705TJd69xy98FIkdc-72" target="q9H705TJd69xy98FIkdc-21">
          <mxGeometry width="160" relative="1" as="geometry">
            <mxPoint x="725" y="350" as="sourcePoint" />
            <mxPoint x="730.0000000000009" y="250" as="targetPoint" />
          </mxGeometry>
        </mxCell>
        <mxCell id="q9H705TJd69xy98FIkdc-36" value="" style="endArrow=block;dashed=1;endFill=0;endSize=12;html=1;rounded=0;exitX=0.5;exitY=0;exitDx=0;exitDy=0;entryX=0.5;entryY=1;entryDx=0;entryDy=0;" edge="1" parent="1" source="q9H705TJd69xy98FIkdc-76" target="q9H705TJd69xy98FIkdc-72">
          <mxGeometry width="160" relative="1" as="geometry">
            <mxPoint x="790.0000000000009" y="280" as="sourcePoint" />
            <mxPoint x="840" y="320" as="targetPoint" />
          </mxGeometry>
        </mxCell>
        <mxCell id="q9H705TJd69xy98FIkdc-39" value="" style="endArrow=block;dashed=1;endFill=0;endSize=12;html=1;rounded=0;exitX=0;exitY=0.5;exitDx=0;exitDy=0;entryX=1;entryY=0.5;entryDx=0;entryDy=0;" edge="1" parent="1" source="q9H705TJd69xy98FIkdc-77" target="q9H705TJd69xy98FIkdc-72">
          <mxGeometry width="160" relative="1" as="geometry">
            <mxPoint x="980.0000000000009" y="220" as="sourcePoint" />
            <mxPoint x="990.5600000000004" y="137.77999999999997" as="targetPoint" />
          </mxGeometry>
        </mxCell>
        <mxCell id="q9H705TJd69xy98FIkdc-41" value="&amp;lt;extends&amp;gt;" style="text;html=1;align=center;verticalAlign=middle;whiteSpace=wrap;rounded=0;rotation=0;" vertex="1" parent="1">
          <mxGeometry x="390" y="510" width="90" height="30" as="geometry" />
        </mxCell>
        <mxCell id="q9H705TJd69xy98FIkdc-44" value="Kartenscreen" style="rounded=1;whiteSpace=wrap;html=1;" vertex="1" parent="1">
          <mxGeometry x="480" y="380" width="120" height="60" as="geometry" />
        </mxCell>
        <mxCell id="q9H705TJd69xy98FIkdc-45" value="" style="endArrow=block;dashed=1;endFill=0;endSize=12;html=1;rounded=0;exitX=0.5;exitY=0;exitDx=0;exitDy=0;entryX=0.5;entryY=1;entryDx=0;entryDy=0;" edge="1" parent="1" source="q9H705TJd69xy98FIkdc-44" target="q9H705TJd69xy98FIkdc-21">
          <mxGeometry width="160" relative="1" as="geometry">
            <mxPoint x="110" y="230" as="sourcePoint" />
            <mxPoint x="260" y="310" as="targetPoint" />
          </mxGeometry>
        </mxCell>
        <mxCell id="q9H705TJd69xy98FIkdc-49" value="Ãœbersetzung" style="rounded=1;whiteSpace=wrap;html=1;" vertex="1" parent="1">
          <mxGeometry x="270" y="510" width="120" height="60" as="geometry" />
        </mxCell>
        <mxCell id="q9H705TJd69xy98FIkdc-52" value="Wort" style="rounded=1;whiteSpace=wrap;html=1;" vertex="1" parent="1">
          <mxGeometry x="480" y="510" width="120" height="60" as="geometry" />
        </mxCell>
        <mxCell id="q9H705TJd69xy98FIkdc-69" value="&amp;lt;extends&amp;gt;" style="text;html=1;align=center;verticalAlign=middle;whiteSpace=wrap;rounded=0;rotation=0;" vertex="1" parent="1">
          <mxGeometry x="350" y="80" width="110" height="30" as="geometry" />
        </mxCell>
        <mxCell id="q9H705TJd69xy98FIkdc-70" value="&amp;lt;extends&amp;gt;" style="text;html=1;align=center;verticalAlign=middle;whiteSpace=wrap;rounded=0;rotation=45;" vertex="1" parent="1">
          <mxGeometry x="380" y="160" width="90" height="30" as="geometry" />
        </mxCell>
        <mxCell id="q9H705TJd69xy98FIkdc-72" value="Deck bearbeiten" style="rounded=1;whiteSpace=wrap;html=1;" vertex="1" parent="1">
          <mxGeometry x="730" y="220" width="120" height="60" as="geometry" />
        </mxCell>
        <mxCell id="q9H705TJd69xy98FIkdc-74" value="&amp;lt;extends&amp;gt;" style="text;html=1;align=center;verticalAlign=middle;whiteSpace=wrap;rounded=0;rotation=0;" vertex="1" parent="1">
          <mxGeometry x="630" y="220" width="90" height="30" as="geometry" />
        </mxCell>
        <mxCell id="q9H705TJd69xy98FIkdc-76" value="Namen Ã„ndern" style="rounded=1;whiteSpace=wrap;html=1;" vertex="1" parent="1">
          <mxGeometry x="730" y="380" width="120" height="60" as="geometry" />
        </mxCell>
        <mxCell id="q9H705TJd69xy98FIkdc-77" value="Karten bearbeiten" style="rounded=1;whiteSpace=wrap;html=1;" vertex="1" parent="1">
          <mxGeometry x="970" y="220" width="120" height="60" as="geometry" />
        </mxCell>
        <mxCell id="q9H705TJd69xy98FIkdc-78" value="Karten lÃ¶schen" style="rounded=1;whiteSpace=wrap;html=1;" vertex="1" parent="1">
          <mxGeometry x="1200" y="220" width="120" height="60" as="geometry" />
        </mxCell>
        <mxCell id="q9H705TJd69xy98FIkdc-79" value="Karten hinzufÃ¼gen" style="rounded=1;whiteSpace=wrap;html=1;" vertex="1" parent="1">
          <mxGeometry x="1200" y="100" width="120" height="60" as="geometry" />
        </mxCell>
        <mxCell id="q9H705TJd69xy98FIkdc-80" value="Karten bearbeiten" style="rounded=1;whiteSpace=wrap;html=1;" vertex="1" parent="1">
          <mxGeometry x="1200" y="340" width="120" height="60" as="geometry" />
        </mxCell>
        <mxCell id="q9H705TJd69xy98FIkdc-81" value="" style="endArrow=block;dashed=1;endFill=0;endSize=12;html=1;rounded=0;exitX=0;exitY=0.5;exitDx=0;exitDy=0;entryX=1;entryY=0.5;entryDx=0;entryDy=0;" edge="1" parent="1" source="q9H705TJd69xy98FIkdc-79" target="q9H705TJd69xy98FIkdc-77">
          <mxGeometry width="160" relative="1" as="geometry">
            <mxPoint x="980" y="260" as="sourcePoint" />
            <mxPoint x="860" y="260" as="targetPoint" />
          </mxGeometry>
        </mxCell>
        <mxCell id="q9H705TJd69xy98FIkdc-82" value="" style="endArrow=block;dashed=1;endFill=0;endSize=12;html=1;rounded=0;exitX=0;exitY=0.5;exitDx=0;exitDy=0;" edge="1" parent="1" source="q9H705TJd69xy98FIkdc-78">
          <mxGeometry width="160" relative="1" as="geometry">
            <mxPoint x="1210" y="140" as="sourcePoint" />
            <mxPoint x="1090" y="250" as="targetPoint" />
          </mxGeometry>
        </mxCell>
        <mxCell id="q9H705TJd69xy98FIkdc-83" value="" style="endArrow=block;dashed=1;endFill=0;endSize=12;html=1;rounded=0;exitX=0;exitY=0.5;exitDx=0;exitDy=0;" edge="1" parent="1" source="q9H705TJd69xy98FIkdc-80">
          <mxGeometry width="160" relative="1" as="geometry">
            <mxPoint x="1210" y="260" as="sourcePoint" />
            <mxPoint x="1090" y="250" as="targetPoint" />
          </mxGeometry>
        </mxCell>
        <mxCell id="q9H705TJd69xy98FIkdc-84" value="Wort eingeben" style="rounded=1;whiteSpace=wrap;html=1;" vertex="1" parent="1">
          <mxGeometry x="1400" y="50" width="120" height="60" as="geometry" />
        </mxCell>
        <mxCell id="q9H705TJd69xy98FIkdc-85" value="" style="endArrow=block;dashed=1;endFill=0;endSize=12;html=1;rounded=0;exitX=1;exitY=0.5;exitDx=0;exitDy=0;entryX=0;entryY=0.5;entryDx=0;entryDy=0;" edge="1" parent="1" source="q9H705TJd69xy98FIkdc-79" target="q9H705TJd69xy98FIkdc-84">
          <mxGeometry width="160" relative="1" as="geometry">
            <mxPoint x="1210" y="140" as="sourcePoint" />
            <mxPoint x="1100" y="260" as="targetPoint" />
          </mxGeometry>
        </mxCell>
        <mxCell id="q9H705TJd69xy98FIkdc-86" value="Ãœbersetzung eingeben" style="rounded=1;whiteSpace=wrap;html=1;" vertex="1" parent="1">
          <mxGeometry x="1400" y="145" width="120" height="60" as="geometry" />
        </mxCell>
        <mxCell id="q9H705TJd69xy98FIkdc-87" value="" style="endArrow=block;dashed=1;endFill=0;endSize=12;html=1;rounded=0;exitX=1;exitY=0.5;exitDx=0;exitDy=0;entryX=0;entryY=0.5;entryDx=0;entryDy=0;" edge="1" parent="1" source="q9H705TJd69xy98FIkdc-79" target="q9H705TJd69xy98FIkdc-86">
          <mxGeometry width="160" relative="1" as="geometry">
            <mxPoint x="1330" y="140" as="sourcePoint" />
            <mxPoint x="1410" y="105" as="targetPoint" />
          </mxGeometry>
        </mxCell>
        <mxCell id="q9H705TJd69xy98FIkdc-90" value="" style="endArrow=block;dashed=1;endFill=0;endSize=12;html=1;rounded=0;exitX=0.5;exitY=1;exitDx=0;exitDy=0;entryX=0.5;entryY=0;entryDx=0;entryDy=0;" edge="1" parent="1" source="q9H705TJd69xy98FIkdc-44" target="q9H705TJd69xy98FIkdc-52">
          <mxGeometry width="160" relative="1" as="geometry">
            <mxPoint x="550" y="390" as="sourcePoint" />
            <mxPoint x="550" y="290" as="targetPoint" />
          </mxGeometry>
        </mxCell>
        <mxCell id="q9H705TJd69xy98FIkdc-91" value="" style="endArrow=block;dashed=1;endFill=0;endSize=12;html=1;rounded=0;exitX=1;exitY=0.5;exitDx=0;exitDy=0;entryX=0;entryY=0.5;entryDx=0;entryDy=0;" edge="1" parent="1" source="q9H705TJd69xy98FIkdc-49" target="q9H705TJd69xy98FIkdc-52">
          <mxGeometry width="160" relative="1" as="geometry">
            <mxPoint x="550" y="450" as="sourcePoint" />
            <mxPoint x="550" y="520" as="targetPoint" />
          </mxGeometry>
        </mxCell>
        <mxCell id="q9H705TJd69xy98FIkdc-92" value="" style="endArrow=block;dashed=1;endFill=0;endSize=12;html=1;rounded=0;exitX=0.5;exitY=1;exitDx=0;exitDy=0;entryX=1;entryY=0.5;entryDx=0;entryDy=0;" edge="1" parent="1" source="q9H705TJd69xy98FIkdc-52" target="q9H705TJd69xy98FIkdc-52">
          <mxGeometry width="160" relative="1" as="geometry">
            <mxPoint x="400" y="550" as="sourcePoint" />
            <mxPoint x="680" y="590" as="targetPoint" />
            <Array as="points">
              <mxPoint x="540" y="620" />
              <mxPoint x="650" y="620" />
              <mxPoint x="650" y="540" />
            </Array>
          </mxGeometry>
        </mxCell>
        <mxCell id="q9H705TJd69xy98FIkdc-93" value="Eingabe Schwierigkeit" style="rounded=1;whiteSpace=wrap;html=1;" vertex="1" parent="1">
          <mxGeometry x="270" y="620" width="120" height="60" as="geometry" />
        </mxCell>
        <mxCell id="q9H705TJd69xy98FIkdc-94" value="" style="endArrow=block;dashed=1;endFill=0;endSize=12;html=1;rounded=0;exitX=1;exitY=0.5;exitDx=0;exitDy=0;entryX=0;entryY=0.5;entryDx=0;entryDy=0;" edge="1" parent="1" source="q9H705TJd69xy98FIkdc-93" target="q9H705TJd69xy98FIkdc-52">
          <mxGeometry width="160" relative="1" as="geometry">
            <mxPoint x="400" y="550" as="sourcePoint" />
            <mxPoint x="490" y="550" as="targetPoint" />
          </mxGeometry>
        </mxCell>
        <mxCell id="q9H705TJd69xy98FIkdc-95" value="&amp;lt;include&amp;gt;" style="text;html=1;align=center;verticalAlign=middle;whiteSpace=wrap;rounded=0;rotation=30;" vertex="1" parent="1">
          <mxGeometry x="1340" y="130" width="60" height="30" as="geometry" />
        </mxCell>
        <mxCell id="q9H705TJd69xy98FIkdc-96" value="&amp;lt;include&amp;gt;" style="text;html=1;align=center;verticalAlign=middle;whiteSpace=wrap;rounded=0;rotation=-37;" vertex="1" parent="1">
          <mxGeometry x="1330" y="80" width="60" height="30" as="geometry" />
        </mxCell>
        <mxCell id="q9H705TJd69xy98FIkdc-97" value="&amp;lt;extends&amp;gt;" style="text;html=1;align=center;verticalAlign=middle;whiteSpace=wrap;rounded=0;rotation=-45;" vertex="1" parent="1">
          <mxGeometry x="1100" y="150" width="90" height="30" as="geometry" />
        </mxCell>
        <mxCell id="q9H705TJd69xy98FIkdc-98" value="&amp;lt;extends&amp;gt;" style="text;html=1;align=center;verticalAlign=middle;whiteSpace=wrap;rounded=0;rotation=45;" vertex="1" parent="1">
          <mxGeometry x="1110" y="290" width="90" height="30" as="geometry" />
        </mxCell>
        <mxCell id="q9H705TJd69xy98FIkdc-99" value="&amp;lt;extends&amp;gt;" style="text;html=1;align=center;verticalAlign=middle;whiteSpace=wrap;rounded=0;rotation=0;" vertex="1" parent="1">
          <mxGeometry x="1120" y="210" width="80" height="30" as="geometry" />
        </mxCell>
        <mxCell id="q9H705TJd69xy98FIkdc-100" value="&amp;lt;extends&amp;gt;" style="text;html=1;align=center;verticalAlign=middle;whiteSpace=wrap;rounded=0;rotation=0;" vertex="1" parent="1">
          <mxGeometry x="870" y="220" width="90" height="30" as="geometry" />
        </mxCell>
        <mxCell id="q9H705TJd69xy98FIkdc-101" value="&amp;lt;extends&amp;gt;" style="text;html=1;align=center;verticalAlign=middle;whiteSpace=wrap;rounded=0;rotation=-51;" vertex="1" parent="1">
          <mxGeometry x="370" y="570" width="90" height="30" as="geometry" />
        </mxCell>
        <mxCell id="q9H705TJd69xy98FIkdc-102" value="&amp;lt;extends&amp;gt;" style="text;html=1;align=center;verticalAlign=middle;whiteSpace=wrap;rounded=0;rotation=0;" vertex="1" parent="1">
          <mxGeometry x="540" y="590" width="90" height="30" as="geometry" />
        </mxCell>
        <mxCell id="q9H705TJd69xy98FIkdc-103" value="&amp;lt;include&amp;gt;" style="text;html=1;align=center;verticalAlign=middle;whiteSpace=wrap;rounded=0;rotation=0;" vertex="1" parent="1">
          <mxGeometry x="540" y="450" width="60" height="30" as="geometry" />
        </mxCell>
        <mxCell id="q9H705TJd69xy98FIkdc-104" value="&amp;lt;extends&amp;gt;" style="text;html=1;align=center;verticalAlign=middle;whiteSpace=wrap;rounded=0;rotation=0;" vertex="1" parent="1">
          <mxGeometry x="540" y="320" width="90" height="30" as="geometry" />
        </mxCell>
        <mxCell id="q9H705TJd69xy98FIkdc-105" value="&amp;lt;extends&amp;gt;" style="text;html=1;align=center;verticalAlign=middle;whiteSpace=wrap;rounded=0;rotation=0;" vertex="1" parent="1">
          <mxGeometry x="800" y="320" width="90" height="30" as="geometry" />
        </mxCell>
        <mxCell id="q9H705TJd69xy98FIkdc-109" value="&lt;font style=&quot;font-size: 36px;&quot;&gt;App&lt;/font&gt;" style="text;html=1;align=center;verticalAlign=middle;whiteSpace=wrap;rounded=0;" vertex="1" parent="1">
          <mxGeometry x="1550" y="710" width="60" height="30" as="geometry" />
        </mxCell>
      </root>
    </mxGraphModel>
  </diagram>
</mxfile>
